<svg id="svg" version="1.1" xmlns="http://www.w3.org/2000/svg" xmlns:xlink="http://www.w3.org/1999/xlink" width="50" height="50" viewBox="0, 0, 400,400"><g id="svgg"><path id="path0" d="M194.400 50.175 C 194.400 52.740,196.071 56.236,198.252 58.235 C 198.994 58.915,199.600 59.676,199.600 59.927 C 199.600 60.178,200.590 61.357,201.800 62.548 C 203.010 63.739,204.000 64.991,204.000 65.330 C 204.000 65.669,204.801 66.603,205.779 67.404 C 206.758 68.206,207.750 69.443,207.984 70.153 C 208.219 70.863,209.123 72.231,209.993 73.192 C 210.864 74.154,211.858 75.536,212.203 76.263 C 212.548 76.989,213.617 78.322,214.580 79.224 C 215.542 80.126,216.533 81.355,216.782 81.956 C 217.030 82.556,217.772 83.365,218.429 83.753 C 219.096 84.148,220.004 85.268,220.484 86.290 C 220.957 87.296,221.807 88.387,222.372 88.713 C 222.941 89.042,223.935 90.398,224.600 91.752 C 225.260 93.098,226.475 94.846,227.300 95.637 C 228.125 96.429,228.800 97.288,228.800 97.547 C 228.800 97.806,229.767 98.969,230.949 100.132 C 232.131 101.295,233.214 102.614,233.356 103.063 C 233.499 103.511,234.332 104.454,235.208 105.158 C 236.083 105.862,236.800 106.755,236.800 107.143 C 236.800 107.531,237.613 108.801,238.607 109.965 C 239.601 111.130,240.897 112.919,241.487 113.941 C 242.077 114.964,242.749 115.919,242.980 116.065 C 244.103 116.774,245.143 117.955,246.002 119.500 C 246.522 120.435,247.096 121.200,247.278 121.200 C 249.926 121.200,251.741 123.604,250.600 125.600 C 249.791 127.014,249.843 127.175,251.300 127.788 C 252.906 128.464,254.800 132.192,254.800 134.678 C 254.800 135.130,255.434 136.191,256.208 137.037 C 256.982 137.882,257.797 139.300,258.017 140.187 C 259.110 144.580,259.391 145.320,260.357 146.356 C 261.673 147.766,262.174 148.841,262.804 151.600 C 263.080 152.810,263.889 154.610,264.601 155.600 C 265.850 157.337,266.172 158.117,267.242 162.000 C 267.515 162.990,268.165 164.384,268.687 165.097 C 269.952 166.825,271.180 169.582,271.191 170.716 C 271.202 171.823,272.492 174.447,273.394 175.195 C 274.272 175.924,275.019 177.800,275.374 180.169 C 275.574 181.499,276.153 182.775,277.186 184.162 C 278.132 185.432,278.934 187.125,279.314 188.654 C 279.649 190.003,280.560 192.033,281.338 193.164 C 282.116 194.295,282.860 195.621,282.990 196.111 C 283.121 196.600,283.419 197.720,283.653 198.600 C 283.887 199.480,284.240 200.513,284.439 200.895 C 284.638 201.277,284.800 201.842,284.800 202.152 C 284.800 202.461,285.025 202.801,285.300 202.907 C 285.947 203.156,287.600 206.255,287.600 207.219 C 287.600 207.941,288.027 209.188,288.950 211.163 C 289.197 211.693,289.877 212.638,290.461 213.264 C 291.249 214.108,291.591 215.001,291.793 216.737 C 292.009 218.600,292.383 219.495,293.643 221.159 C 294.511 222.306,295.477 224.180,295.789 225.323 C 296.966 229.633,297.231 230.326,297.778 230.536 C 298.502 230.814,299.422 232.802,300.162 235.685 C 300.796 238.154,301.930 240.800,302.355 240.800 C 302.792 240.800,303.891 243.274,304.398 245.400 C 305.005 247.950,305.540 249.048,306.866 250.469 C 307.498 251.146,308.040 252.301,308.198 253.306 C 308.584 255.761,309.293 257.685,310.148 258.600 C 311.354 259.889,312.396 261.738,312.405 262.600 C 312.419 264.189,313.884 267.479,315.210 268.903 C 315.596 269.317,316.130 270.498,316.397 271.528 C 317.299 275.007,318.066 277.208,318.549 277.705 C 319.636 278.823,320.740 281.129,321.169 283.179 C 321.559 285.039,323.019 287.683,324.061 288.413 C 324.389 288.643,325.600 292.997,325.600 293.947 C 325.600 294.266,326.293 295.443,327.141 296.563 C 327.993 297.690,328.902 299.494,329.176 300.600 C 329.765 302.985,330.816 305.600,331.187 305.600 C 331.572 305.600,333.200 308.763,333.200 309.511 C 333.200 310.394,334.816 314.860,335.356 315.471 C 336.840 317.147,337.358 318.279,338.022 321.300 C 338.300 322.565,338.679 323.600,338.864 323.600 C 339.049 323.600,339.200 323.870,339.200 324.200 C 339.200 324.530,339.383 324.800,339.606 324.800 C 340.336 324.800,341.535 327.271,341.816 329.357 C 342.249 332.564,343.222 333.979,345.089 334.118 C 346.587 334.229,347.169 335.342,347.186 338.129 C 347.194 339.456,347.415 340.660,347.700 340.929 C 348.422 341.609,350.397 341.745,350.413 341.115 C 350.421 340.780,350.610 340.843,350.952 341.294 C 351.757 342.353,352.001 341.731,351.994 338.633 C 351.989 336.501,351.881 335.948,351.556 336.400 C 351.198 336.898,351.165 336.875,351.364 336.263 C 352.023 334.234,352.049 333.592,351.495 333.038 C 351.040 332.583,350.793 332.558,350.396 332.926 C 349.998 333.294,349.946 333.288,350.165 332.900 C 350.340 332.590,350.202 332.400,349.800 332.400 C 349.444 332.400,349.252 332.561,349.374 332.758 C 349.496 332.955,349.317 333.223,348.977 333.354 C 348.608 333.495,348.462 333.424,348.614 333.178 C 348.754 332.951,348.636 332.485,348.352 332.142 C 347.614 331.253,346.643 317.060,347.002 312.400 C 348.104 298.082,348.183 281.403,347.138 283.800 C 346.834 284.496,346.806 284.468,346.923 283.586 C 347.023 282.822,346.876 282.571,346.328 282.571 C 345.928 282.571,345.600 282.713,345.600 282.886 C 345.600 283.746,343.885 282.735,343.740 281.790 C 342.997 276.924,342.911 268.763,343.374 246.878 C 343.535 239.254,343.471 235.706,343.162 235.130 C 342.843 234.532,342.842 234.379,343.160 234.575 C 343.455 234.758,343.600 234.254,343.600 233.047 C 343.600 231.239,343.105 230.382,342.566 231.255 C 342.385 231.548,342.450 231.616,342.738 231.438 C 343.346 231.062,343.333 231.707,342.720 232.320 C 342.347 232.693,342.347 232.800,342.720 232.800 C 342.984 232.800,343.200 233.070,343.200 233.400 C 343.200 233.730,343.009 234.000,342.776 234.000 C 342.543 234.000,342.464 233.820,342.600 233.600 C 342.807 233.266,341.396 232.987,340.314 233.148 C 340.157 233.171,340.131 232.924,340.256 232.599 C 340.381 232.273,340.221 231.906,339.902 231.784 C 339.477 231.621,339.301 230.781,339.248 228.680 C 339.209 227.096,339.069 224.540,338.938 223.000 C 338.596 218.971,338.634 212.642,339.039 206.200 C 339.697 195.752,339.509 185.933,338.625 184.575 C 338.006 183.624,337.988 183.505,338.530 183.949 C 339.107 184.422,339.200 184.408,339.200 183.849 C 339.200 183.492,338.945 183.200,338.633 183.200 C 338.322 183.200,337.997 182.991,337.912 182.735 C 337.826 182.479,337.437 182.223,337.047 182.166 C 336.542 182.092,336.402 182.254,336.561 182.731 C 336.683 183.099,336.479 182.971,336.107 182.446 C 334.891 180.730,334.014 158.249,334.997 154.000 C 335.463 151.989,335.738 136.800,335.308 136.800 C 334.765 136.800,334.369 135.267,334.838 134.977 C 335.037 134.854,335.200 134.573,335.200 134.353 C 335.200 134.133,335.045 134.048,334.856 134.165 C 334.482 134.397,334.573 132.691,334.969 132.050 C 335.103 131.833,335.030 131.542,334.807 131.404 C 334.581 131.265,334.400 131.520,334.400 131.976 C 334.400 132.429,334.199 132.800,333.953 132.800 C 333.704 132.800,333.599 133.153,333.716 133.601 C 333.840 134.073,333.763 134.301,333.528 134.155 C 333.309 134.020,333.219 133.570,333.328 133.155 C 333.526 132.396,333.230 132.241,331.856 132.386 C 331.412 132.433,331.220 132.291,331.380 132.033 C 331.527 131.795,331.483 131.600,331.282 131.600 C 330.624 131.600,330.473 119.580,330.840 96.600 C 331.032 84.628,330.931 83.200,329.898 83.200 C 329.488 83.200,329.264 83.020,329.400 82.800 C 329.750 82.233,329.064 82.303,328.421 82.900 C 327.980 83.310,327.931 83.263,328.150 82.643 C 328.381 81.991,328.331 81.959,327.787 82.411 C 327.439 82.699,327.186 82.770,327.225 82.568 C 327.263 82.365,327.260 82.110,327.217 82.000 C 326.914 81.225,326.754 79.196,326.410 71.772 C 326.194 67.137,326.101 62.916,326.201 62.392 C 326.438 61.164,326.467 51.248,326.237 50.200 C 326.140 49.760,326.047 49.130,326.030 48.800 C 326.006 48.329,325.334 48.181,322.900 48.114 C 321.195 48.066,320.025 48.126,320.300 48.247 C 321.406 48.733,320.907 52.318,319.567 53.506 C 318.889 54.108,317.944 55.015,317.467 55.523 C 316.569 56.479,315.276 57.781,313.957 59.060 C 313.537 59.467,312.595 60.430,311.864 61.200 C 311.133 61.970,310.009 63.098,309.367 63.708 C 308.038 64.969,306.902 66.097,305.308 67.742 C 304.698 68.370,303.686 69.360,303.058 69.942 C 302.430 70.524,301.440 71.517,300.858 72.148 C 300.276 72.779,299.397 73.679,298.905 74.148 C 298.413 74.617,297.513 75.510,296.905 76.133 C 296.297 76.757,295.296 77.747,294.679 78.333 C 294.063 78.920,293.163 79.818,292.679 80.329 C 290.936 82.171,289.692 83.419,288.556 84.465 C 287.089 85.815,285.815 87.089,284.465 88.556 C 283.419 89.692,282.171 90.936,280.329 92.679 C 279.818 93.163,278.920 94.063,278.333 94.679 C 277.747 95.296,276.757 96.297,276.133 96.905 C 275.510 97.513,274.617 98.413,274.148 98.905 C 273.679 99.397,272.779 100.276,272.148 100.858 C 271.517 101.440,270.524 102.430,269.942 103.058 C 269.360 103.686,268.370 104.698,267.742 105.308 C 266.097 106.902,264.969 108.038,263.708 109.367 C 263.098 110.009,261.970 111.133,261.200 111.864 C 260.430 112.595,259.467 113.537,259.060 113.957 C 257.781 115.276,256.479 116.569,255.523 117.467 C 255.015 117.944,254.127 118.869,253.549 119.522 C 251.818 121.476,246.800 120.121,246.800 117.699 C 246.800 117.132,244.982 115.103,244.159 114.753 C 243.962 114.669,243.261 113.554,242.603 112.276 C 241.945 110.998,240.831 109.429,240.128 108.789 C 239.425 108.149,238.540 106.973,238.161 106.175 C 237.783 105.377,236.876 104.336,236.147 103.862 C 235.418 103.388,234.607 102.460,234.345 101.800 C 233.722 100.232,232.815 99.190,231.700 98.764 C 231.205 98.575,230.800 98.188,230.800 97.904 C 230.800 97.074,229.511 94.965,228.000 93.322 C 227.230 92.485,226.240 91.083,225.800 90.206 C 224.876 88.366,224.237 87.600,223.624 87.600 C 223.385 87.600,222.557 86.611,221.784 85.402 C 221.011 84.193,219.920 82.904,219.361 82.537 C 218.801 82.171,217.975 81.088,217.525 80.131 C 217.076 79.174,216.229 78.108,215.645 77.763 C 215.057 77.416,214.249 76.327,213.834 75.324 C 213.421 74.327,212.301 72.706,211.345 71.722 C 210.388 70.737,209.315 69.320,208.960 68.572 C 208.605 67.824,207.722 66.846,206.998 66.399 C 206.207 65.910,205.424 64.942,205.038 63.977 C 204.624 62.943,203.889 62.071,202.977 61.533 C 202.050 60.987,201.481 60.304,201.332 59.562 C 201.208 58.938,200.316 57.591,199.350 56.569 C 196.985 54.064,196.289 52.487,196.461 50.013 C 196.597 48.049,196.573 48.000,195.500 48.000 C 194.435 48.000,194.400 48.069,194.400 50.175 M118.491 125.622 C 117.991 125.819,117.472 126.268,117.338 126.618 C 117.073 127.309,117.866 143.791,118.415 149.000 C 120.155 165.507,120.420 169.277,121.197 188.600 C 121.764 202.683,122.242 209.575,123.194 217.400 C 123.649 221.140,124.198 226.990,124.414 230.400 C 125.350 245.155,125.701 247.200,127.302 247.200 C 128.083 247.200,247.300 127.638,247.083 127.072 C 246.333 125.117,248.728 125.185,181.727 125.226 C 146.024 125.248,119.012 125.417,118.491 125.622 " stroke="none" fill="#fc4484" fill-rule="evenodd"></path><path id="path1" d="M196.667 48.267 C 195.359 49.574,196.857 54.021,199.532 56.778 C 200.394 57.666,201.202 58.910,201.329 59.544 C 201.481 60.305,202.041 60.981,202.977 61.533 C 203.889 62.071,204.624 62.943,205.038 63.977 C 205.424 64.942,206.207 65.910,206.998 66.399 C 207.722 66.846,208.605 67.824,208.960 68.572 C 209.315 69.320,210.388 70.737,211.345 71.722 C 212.301 72.706,213.421 74.327,213.834 75.324 C 214.249 76.327,215.057 77.416,215.645 77.763 C 216.229 78.108,217.076 79.174,217.525 80.131 C 217.975 81.088,218.801 82.171,219.361 82.537 C 219.920 82.904,221.011 84.193,221.784 85.402 C 222.557 86.611,223.385 87.600,223.624 87.600 C 224.237 87.600,224.876 88.366,225.800 90.206 C 226.240 91.083,227.230 92.485,228.000 93.322 C 229.511 94.965,230.800 97.074,230.800 97.904 C 230.800 98.188,231.205 98.575,231.700 98.764 C 232.815 99.190,233.722 100.232,234.345 101.800 C 234.607 102.460,235.418 103.388,236.147 103.862 C 236.876 104.336,237.783 105.377,238.161 106.175 C 238.540 106.973,239.425 108.149,240.128 108.789 C 240.831 109.429,241.945 110.998,242.603 112.276 C 243.261 113.554,243.962 114.669,244.159 114.753 C 244.982 115.103,246.800 117.132,246.800 117.699 C 246.800 120.121,251.818 121.476,253.549 119.522 C 254.127 118.869,255.015 117.944,255.523 117.467 C 256.484 116.563,257.639 115.418,259.000 114.017 C 259.440 113.564,260.430 112.595,261.200 111.864 C 261.970 111.133,263.098 110.009,263.708 109.367 C 264.969 108.038,266.097 106.902,267.742 105.308 C 268.370 104.698,269.360 103.686,269.942 103.058 C 270.524 102.430,271.517 101.440,272.148 100.858 C 272.779 100.276,273.679 99.397,274.148 98.905 C 274.617 98.413,275.510 97.513,276.133 96.905 C 276.757 96.297,277.747 95.296,278.333 94.679 C 278.920 94.063,279.818 93.163,280.329 92.679 C 282.171 90.936,283.419 89.692,284.465 88.556 C 285.815 87.089,287.089 85.815,288.556 84.465 C 289.692 83.419,290.936 82.171,292.679 80.329 C 293.163 79.818,294.063 78.920,294.679 78.333 C 295.296 77.747,296.297 76.757,296.905 76.133 C 297.513 75.510,298.413 74.617,298.905 74.148 C 299.397 73.679,300.276 72.779,300.858 72.148 C 301.440 71.517,302.430 70.524,303.058 69.942 C 303.686 69.360,304.698 68.370,305.308 67.742 C 306.902 66.097,308.038 64.969,309.367 63.708 C 310.009 63.098,311.133 61.970,311.864 61.200 C 312.595 60.430,313.537 59.467,313.957 59.060 C 315.276 57.781,316.569 56.479,317.467 55.523 C 317.944 55.015,318.889 54.108,319.567 53.506 C 321.008 52.228,321.408 48.719,320.167 48.243 C 319.300 47.910,197.000 47.934,196.667 48.267 " stroke="none" fill="#fb82ab" fill-rule="evenodd"></path><path id="path2" d="M186.779 48.950 C 186.476 49.418,186.213 49.890,186.195 50.000 C 186.019 51.036,185.446 52.000,185.006 52.000 C 184.710 52.000,184.376 52.225,184.265 52.500 C 184.112 52.879,184.056 52.882,184.032 52.513 C 184.014 52.244,183.731 52.128,183.402 52.254 C 183.074 52.381,182.904 52.645,183.026 52.843 C 183.148 53.040,182.787 53.377,182.224 53.591 C 181.661 53.805,181.200 54.085,181.200 54.214 C 181.200 54.342,181.425 54.320,181.700 54.165 C 182.100 53.939,182.100 53.990,181.700 54.421 C 181.425 54.718,181.200 55.205,181.200 55.504 C 181.200 55.832,181.398 55.928,181.700 55.747 C 182.063 55.529,182.055 55.626,181.671 56.099 C 181.373 56.467,180.863 56.646,180.505 56.508 C 180.112 56.357,179.969 56.427,180.132 56.690 C 180.277 56.924,180.117 57.223,179.777 57.354 C 179.384 57.504,179.259 57.428,179.435 57.144 C 179.603 56.872,179.493 56.775,179.156 56.898 C 178.850 57.009,178.643 57.296,178.695 57.536 C 178.748 57.775,178.523 57.868,178.195 57.743 C 177.563 57.500,177.546 57.539,177.457 59.400 C 177.405 60.500,177.280 60.600,175.964 60.600 C 175.174 60.600,174.258 60.823,173.927 61.097 C 173.597 61.370,173.208 61.475,173.063 61.330 C 172.918 61.185,172.800 61.266,172.800 61.510 C 172.800 61.753,172.973 62.060,173.185 62.191 C 173.422 62.337,173.431 62.791,173.210 63.373 C 173.013 63.893,172.975 64.455,173.126 64.623 C 173.276 64.791,173.187 64.806,172.928 64.658 C 172.668 64.509,172.340 64.573,172.200 64.800 C 172.060 65.027,171.789 65.117,171.598 64.999 C 171.408 64.881,170.802 65.234,170.253 65.783 C 169.381 66.655,169.235 66.694,169.093 66.091 C 169.003 65.711,168.936 66.069,168.944 66.888 C 168.952 67.706,168.827 68.507,168.667 68.667 C 168.507 68.827,167.706 68.952,166.888 68.944 C 166.069 68.936,165.711 69.003,166.091 69.093 C 166.694 69.235,166.655 69.381,165.783 70.253 C 165.234 70.802,164.881 71.408,164.999 71.598 C 165.117 71.789,165.027 72.060,164.800 72.200 C 164.573 72.340,164.509 72.668,164.658 72.928 C 164.806 73.187,164.791 73.276,164.623 73.126 C 164.455 72.975,163.893 73.013,163.373 73.210 C 162.791 73.431,162.337 73.422,162.191 73.185 C 162.060 72.973,161.753 72.800,161.510 72.800 C 161.266 72.800,161.185 72.918,161.330 73.063 C 161.475 73.208,161.370 73.597,161.097 73.927 C 160.823 74.258,160.600 75.174,160.600 75.964 C 160.600 77.280,160.500 77.405,159.400 77.457 C 157.539 77.546,157.500 77.563,157.743 78.195 C 157.868 78.523,157.775 78.748,157.536 78.695 C 157.296 78.643,157.009 78.850,156.898 79.156 C 156.775 79.493,156.872 79.603,157.144 79.435 C 157.428 79.259,157.504 79.384,157.354 79.777 C 157.223 80.117,156.924 80.277,156.690 80.132 C 156.427 79.969,156.357 80.112,156.508 80.505 C 156.646 80.863,156.467 81.373,156.099 81.671 C 155.626 82.055,155.529 82.063,155.747 81.700 C 155.928 81.398,155.832 81.200,155.504 81.200 C 155.205 81.200,154.718 81.425,154.421 81.700 C 153.990 82.100,153.939 82.100,154.165 81.700 C 154.320 81.425,154.342 81.200,154.214 81.200 C 154.085 81.200,153.805 81.661,153.591 82.224 C 153.377 82.787,153.040 83.148,152.843 83.026 C 152.645 82.904,152.385 83.062,152.264 83.376 C 152.144 83.691,152.260 84.036,152.522 84.143 C 152.877 84.287,152.872 84.345,152.500 84.368 C 152.225 84.386,152.000 84.658,152.000 84.973 C 152.000 85.440,150.950 86.076,150.000 86.183 C 149.504 86.239,147.973 87.535,148.031 87.849 C 148.219 88.878,147.895 89.520,146.975 89.939 C 146.225 90.281,146.025 90.284,146.230 89.951 C 146.385 89.701,146.351 89.570,146.156 89.661 C 144.232 90.552,143.602 91.023,143.612 91.564 C 143.623 92.105,143.685 92.096,144.032 91.500 C 144.256 91.115,144.581 90.800,144.753 90.800 C 145.284 90.800,145.099 91.953,144.533 92.170 C 144.240 92.283,144.000 92.741,144.000 93.187 C 144.000 93.738,143.738 94.000,143.187 94.000 C 142.741 94.000,142.283 94.240,142.170 94.533 C 141.953 95.099,140.800 95.284,140.800 94.753 C 140.800 94.581,141.115 94.256,141.500 94.032 C 142.096 93.685,142.105 93.623,141.564 93.612 C 141.023 93.602,140.552 94.232,139.661 96.156 C 139.570 96.351,139.701 96.385,139.951 96.230 C 140.284 96.025,140.281 96.225,139.939 96.975 C 139.520 97.895,138.878 98.219,137.849 98.031 C 137.535 97.973,136.239 99.504,136.183 100.000 C 136.079 100.926,135.447 102.000,135.006 102.000 C 134.710 102.000,134.376 102.225,134.265 102.500 C 134.112 102.879,134.056 102.882,134.032 102.513 C 134.014 102.244,133.731 102.128,133.402 102.254 C 133.074 102.381,132.904 102.645,133.026 102.843 C 133.148 103.040,132.787 103.377,132.224 103.591 C 131.661 103.805,131.200 104.085,131.200 104.214 C 131.200 104.342,131.425 104.320,131.700 104.165 C 132.100 103.939,132.100 103.990,131.700 104.421 C 131.425 104.718,131.200 105.205,131.200 105.504 C 131.200 105.832,131.398 105.928,131.700 105.747 C 132.063 105.529,132.055 105.626,131.671 106.099 C 131.373 106.467,130.863 106.646,130.505 106.508 C 130.112 106.357,129.969 106.427,130.132 106.690 C 130.277 106.924,130.117 107.223,129.777 107.354 C 129.384 107.504,129.259 107.428,129.435 107.144 C 129.603 106.872,129.493 106.775,129.156 106.898 C 128.850 107.009,128.643 107.296,128.695 107.536 C 128.748 107.775,128.523 107.868,128.195 107.743 C 127.563 107.500,127.546 107.539,127.457 109.400 C 127.405 110.500,127.280 110.600,125.964 110.600 C 125.174 110.600,124.258 110.823,123.927 111.097 C 123.597 111.370,123.208 111.475,123.063 111.330 C 122.918 111.185,122.800 111.266,122.800 111.510 C 122.800 111.753,122.973 112.060,123.185 112.191 C 123.422 112.337,123.431 112.791,123.210 113.373 C 123.013 113.893,122.975 114.455,123.126 114.623 C 123.276 114.791,123.187 114.806,122.928 114.658 C 122.668 114.509,122.340 114.573,122.200 114.800 C 122.060 115.027,121.789 115.117,121.598 114.999 C 121.408 114.881,120.802 115.234,120.253 115.783 C 119.381 116.655,119.235 116.694,119.093 116.091 C 119.003 115.711,118.936 116.069,118.944 116.888 C 118.961 118.741,118.741 118.961,116.888 118.944 C 116.069 118.936,115.711 119.003,116.091 119.093 C 116.694 119.235,116.655 119.381,115.783 120.253 C 115.234 120.802,114.881 121.408,114.999 121.598 C 115.117 121.789,115.027 122.060,114.800 122.200 C 114.573 122.340,114.509 122.668,114.658 122.928 C 114.806 123.187,114.791 123.276,114.623 123.126 C 114.455 122.975,113.893 123.013,113.373 123.210 C 112.791 123.431,112.337 123.422,112.191 123.185 C 112.060 122.973,111.753 122.800,111.510 122.800 C 111.266 122.800,111.185 122.918,111.330 123.063 C 111.475 123.208,111.370 123.597,111.097 123.927 C 110.823 124.258,110.600 125.174,110.600 125.964 C 110.600 127.280,110.500 127.405,109.400 127.457 C 107.539 127.546,107.500 127.563,107.743 128.195 C 107.868 128.523,107.775 128.748,107.536 128.695 C 107.296 128.643,107.009 128.850,106.898 129.156 C 106.775 129.493,106.872 129.603,107.144 129.435 C 107.428 129.259,107.504 129.384,107.354 129.777 C 107.223 130.117,106.924 130.277,106.690 130.132 C 106.427 129.969,106.357 130.112,106.508 130.505 C 106.646 130.863,106.467 131.373,106.099 131.671 C 105.626 132.055,105.529 132.063,105.747 131.700 C 105.928 131.398,105.832 131.200,105.504 131.200 C 105.205 131.200,104.718 131.425,104.421 131.700 C 103.990 132.100,103.939 132.100,104.165 131.700 C 104.320 131.425,104.342 131.200,104.214 131.200 C 104.085 131.200,103.805 131.661,103.591 132.224 C 103.377 132.787,103.040 133.148,102.843 133.026 C 102.645 132.904,102.385 133.062,102.264 133.376 C 102.144 133.691,102.260 134.036,102.522 134.143 C 102.877 134.287,102.872 134.345,102.500 134.368 C 102.225 134.386,102.000 134.658,102.000 134.973 C 102.000 135.440,100.950 136.076,100.000 136.183 C 99.504 136.239,97.973 137.535,98.031 137.849 C 98.219 138.878,97.895 139.520,96.975 139.939 C 96.225 140.281,96.025 140.284,96.230 139.951 C 96.385 139.701,96.351 139.570,96.156 139.661 C 94.232 140.552,93.602 141.023,93.612 141.564 C 93.623 142.105,93.685 142.096,94.032 141.500 C 94.256 141.115,94.581 140.800,94.753 140.800 C 95.284 140.800,95.099 141.953,94.533 142.170 C 94.240 142.283,94.000 142.741,94.000 143.187 C 94.000 143.738,93.738 144.000,93.187 144.000 C 92.741 144.000,92.283 144.240,92.170 144.533 C 91.953 145.099,90.800 145.284,90.800 144.753 C 90.800 144.581,91.115 144.256,91.500 144.032 C 92.096 143.685,92.105 143.623,91.564 143.612 C 91.023 143.602,90.552 144.232,89.661 146.156 C 89.570 146.351,89.701 146.385,89.951 146.230 C 90.284 146.025,90.281 146.225,89.939 146.975 C 89.520 147.895,88.878 148.219,87.849 148.031 C 87.535 147.973,86.239 149.504,86.183 150.000 C 86.079 150.926,85.447 152.000,85.006 152.000 C 84.710 152.000,84.376 152.225,84.265 152.500 C 84.112 152.879,84.056 152.882,84.032 152.513 C 84.014 152.244,83.731 152.128,83.402 152.254 C 83.074 152.381,82.904 152.645,83.026 152.843 C 83.148 153.040,82.787 153.377,82.224 153.591 C 81.661 153.805,81.200 154.085,81.200 154.214 C 81.200 154.342,81.425 154.320,81.700 154.165 C 82.100 153.939,82.100 153.990,81.700 154.421 C 81.425 154.718,81.200 155.205,81.200 155.504 C 81.200 155.832,81.398 155.928,81.700 155.747 C 82.063 155.529,82.055 155.626,81.671 156.099 C 81.373 156.467,80.863 156.646,80.505 156.508 C 80.112 156.357,79.969 156.427,80.132 156.690 C 80.277 156.924,80.117 157.223,79.777 157.354 C 79.384 157.504,79.259 157.428,79.435 157.144 C 79.603 156.872,79.493 156.775,79.156 156.898 C 78.850 157.009,78.643 157.296,78.695 157.536 C 78.748 157.775,78.523 157.868,78.195 157.743 C 77.563 157.500,77.546 157.539,77.457 159.400 C 77.405 160.500,77.280 160.600,75.964 160.600 C 75.174 160.600,74.258 160.823,73.927 161.097 C 73.597 161.370,73.208 161.475,73.063 161.330 C 72.918 161.185,72.800 161.266,72.800 161.510 C 72.800 161.753,72.973 162.060,73.185 162.191 C 73.422 162.337,73.431 162.791,73.210 163.373 C 73.013 163.893,72.975 164.455,73.126 164.623 C 73.276 164.791,73.187 164.806,72.928 164.658 C 72.668 164.509,72.340 164.573,72.200 164.800 C 72.060 165.027,71.789 165.117,71.598 164.999 C 71.408 164.881,70.802 165.234,70.253 165.783 C 69.381 166.655,69.235 166.694,69.093 166.091 C 69.003 165.711,68.936 166.069,68.944 166.888 C 68.952 167.706,68.827 168.507,68.667 168.667 C 68.507 168.827,67.706 168.952,66.888 168.944 C 66.069 168.936,65.711 169.003,66.091 169.093 C 66.694 169.235,66.655 169.381,65.783 170.253 C 65.234 170.802,64.881 171.408,64.999 171.598 C 65.117 171.789,65.027 172.060,64.800 172.200 C 64.573 172.340,64.509 172.668,64.658 172.928 C 64.806 173.187,64.791 173.276,64.623 173.126 C 64.455 172.975,63.893 173.013,63.373 173.210 C 62.791 173.431,62.337 173.422,62.191 173.185 C 62.060 172.973,61.753 172.800,61.510 172.800 C 61.266 172.800,61.185 172.918,61.330 173.063 C 61.475 173.208,61.370 173.597,61.097 173.927 C 60.823 174.258,60.600 175.174,60.600 175.964 C 60.600 177.280,60.500 177.405,59.400 177.457 C 57.539 177.546,57.500 177.563,57.743 178.195 C 57.868 178.523,57.775 178.748,57.536 178.695 C 57.296 178.643,57.009 178.850,56.898 179.156 C 56.775 179.493,56.872 179.603,57.144 179.435 C 57.428 179.259,57.504 179.384,57.354 179.777 C 57.223 180.117,56.924 180.277,56.690 180.132 C 56.427 179.969,56.357 180.112,56.508 180.505 C 56.646 180.863,56.467 181.373,56.099 181.671 C 55.626 182.055,55.529 182.063,55.747 181.700 C 56.142 181.042,55.130 181.042,54.421 181.700 C 53.990 182.100,53.939 182.100,54.165 181.700 C 54.320 181.425,54.342 181.200,54.214 181.200 C 54.085 181.200,53.805 181.661,53.591 182.224 C 53.377 182.787,53.040 183.148,52.843 183.026 C 52.645 182.904,52.385 183.062,52.264 183.376 C 52.144 183.691,52.260 184.036,52.522 184.143 C 52.877 184.287,52.872 184.345,52.500 184.368 C 52.225 184.386,52.000 184.658,52.000 184.973 C 52.000 185.440,50.950 186.076,50.000 186.183 C 48.745 186.325,47.229 189.600,48.419 189.600 C 48.689 189.600,48.697 189.845,48.442 190.322 C 47.818 191.488,48.502 192.050,50.408 191.938 C 51.453 191.876,52.207 192.020,52.299 192.298 C 52.755 193.665,54.442 195.515,56.015 196.375 C 56.997 196.912,57.854 197.480,57.921 197.638 C 58.232 198.377,59.559 199.531,61.200 200.488 C 62.190 201.065,63.302 201.866,63.672 202.269 C 64.641 203.323,65.515 204.000,65.908 204.000 C 66.096 204.000,67.139 204.814,68.225 205.810 C 69.311 206.805,70.920 208.002,71.800 208.469 C 72.680 208.936,74.034 210.012,74.809 210.859 C 75.584 211.707,76.430 212.400,76.691 212.400 C 76.951 212.400,78.194 213.390,79.453 214.600 C 80.713 215.810,81.946 216.800,82.193 216.800 C 82.441 216.800,83.354 217.452,84.222 218.250 C 85.090 219.047,86.875 220.431,88.190 221.325 C 89.504 222.220,90.997 223.448,91.507 224.054 C 92.018 224.661,92.827 225.282,93.306 225.434 C 93.785 225.586,95.056 226.585,96.132 227.655 C 97.207 228.725,98.315 229.600,98.593 229.600 C 98.872 229.600,99.797 230.223,100.650 230.985 C 102.957 233.046,103.147 233.200,103.379 233.200 C 103.587 233.200,104.087 233.582,106.557 235.631 C 107.241 236.198,108.610 237.214,109.600 237.888 C 110.590 238.563,111.850 239.602,112.400 240.196 C 112.950 240.791,114.076 241.625,114.902 242.048 C 115.729 242.472,116.629 243.182,116.902 243.626 C 118.280 245.861,125.559 250.400,127.765 250.400 C 128.259 250.400,129.459 250.912,130.431 251.538 C 131.404 252.164,133.460 253.003,135.000 253.402 C 136.619 253.821,138.728 254.751,140.000 255.606 C 141.229 256.432,143.336 257.371,144.773 257.734 C 146.213 258.097,147.974 258.883,148.773 259.519 C 150.398 260.811,150.941 261.053,154.000 261.842 C 156.608 262.516,157.971 263.146,158.831 264.078 C 159.456 264.757,161.214 265.429,164.929 266.411 C 166.002 266.694,167.365 267.427,167.999 268.060 C 168.626 268.687,169.326 269.200,169.555 269.200 C 169.784 269.200,170.743 269.450,171.686 269.756 C 172.629 270.062,173.881 270.422,174.469 270.556 C 175.057 270.690,176.317 271.390,177.269 272.110 C 178.221 272.831,179.810 273.663,180.800 273.958 C 184.199 274.973,185.680 275.626,187.139 276.753 C 187.980 277.403,189.619 278.106,191.000 278.409 C 193.737 279.009,196.344 280.188,196.640 280.961 C 196.751 281.250,197.597 281.704,198.521 281.970 C 199.444 282.236,200.753 282.622,201.428 282.827 C 202.104 283.032,202.940 283.200,203.286 283.200 C 203.632 283.200,204.474 283.722,205.157 284.359 C 206.275 285.404,207.594 285.970,212.000 287.291 C 212.770 287.522,214.030 288.186,214.800 288.768 C 216.527 290.071,217.524 290.521,220.655 291.406 C 222.006 291.787,223.699 292.602,224.418 293.215 C 225.137 293.829,226.552 294.538,227.563 294.791 C 231.447 295.763,232.439 296.164,233.664 297.258 C 234.360 297.879,235.306 298.486,235.765 298.608 C 238.622 299.362,239.513 299.584,240.453 299.776 C 241.033 299.895,242.112 300.557,242.852 301.249 C 243.762 302.098,245.106 302.752,246.999 303.265 C 250.370 304.178,252.000 304.801,252.000 305.175 C 252.000 305.606,254.803 307.011,256.800 307.580 C 259.855 308.450,260.871 308.907,261.783 309.819 C 262.601 310.637,263.658 311.075,267.200 312.063 C 269.198 312.620,270.454 313.236,271.600 314.222 C 272.150 314.695,273.500 315.310,274.600 315.587 C 278.360 316.536,279.401 316.983,280.436 318.091 C 281.005 318.701,281.674 319.200,281.922 319.200 C 282.335 319.200,284.029 319.696,287.573 320.855 C 288.328 321.102,289.318 321.661,289.773 322.096 C 290.750 323.031,293.748 324.400,294.820 324.400 C 295.884 324.400,298.438 325.641,299.486 326.667 C 300.300 327.465,303.940 328.800,305.300 328.800 C 306.214 328.800,308.343 329.983,308.925 330.814 C 309.404 331.498,312.375 332.558,315.307 333.091 C 315.917 333.202,316.953 333.796,317.611 334.410 C 318.269 335.025,319.841 335.833,321.104 336.205 C 324.952 337.340,325.746 337.675,327.200 338.780 C 328.685 339.908,329.632 340.315,333.270 341.387 C 334.545 341.762,336.079 342.571,336.772 343.233 C 337.516 343.945,338.886 344.641,340.228 344.991 C 344.829 346.189,347.293 348.232,346.223 349.963 C 346.093 350.173,346.162 350.453,346.376 350.585 C 346.590 350.717,346.659 351.103,346.529 351.442 C 346.327 351.966,346.706 352.041,349.086 351.944 L 351.881 351.830 351.967 346.622 C 352.014 343.758,351.923 341.543,351.766 341.701 C 351.608 341.859,351.242 341.675,350.952 341.294 C 350.610 340.843,350.421 340.780,350.413 341.115 C 350.397 341.745,348.422 341.609,347.700 340.929 C 347.415 340.660,347.194 339.456,347.186 338.129 C 347.169 335.342,346.587 334.229,345.089 334.118 C 343.222 333.979,342.249 332.564,341.816 329.357 C 341.535 327.271,340.336 324.800,339.606 324.800 C 339.383 324.800,339.200 324.530,339.200 324.200 C 339.200 323.870,339.049 323.600,338.864 323.600 C 338.679 323.600,338.300 322.565,338.022 321.300 C 337.503 318.941,336.906 317.372,336.200 316.514 C 335.980 316.247,335.598 315.784,335.352 315.486 C 334.798 314.817,333.200 310.380,333.200 309.511 C 333.200 308.763,331.572 305.600,331.187 305.600 C 330.816 305.600,329.765 302.985,329.176 300.600 C 328.902 299.494,327.993 297.690,327.141 296.563 C 326.293 295.443,325.600 294.266,325.600 293.947 C 325.600 292.997,324.389 288.643,324.061 288.413 C 323.019 287.683,321.559 285.039,321.169 283.179 C 320.740 281.129,319.636 278.823,318.549 277.705 C 318.066 277.208,317.299 275.007,316.397 271.528 C 316.130 270.498,315.596 269.317,315.210 268.903 C 313.884 267.479,312.419 264.189,312.405 262.600 C 312.396 261.738,311.354 259.889,310.148 258.600 C 309.293 257.685,308.584 255.761,308.198 253.306 C 308.040 252.301,307.498 251.146,306.866 250.469 C 305.540 249.048,305.005 247.950,304.398 245.400 C 303.891 243.274,302.792 240.800,302.355 240.800 C 301.930 240.800,300.796 238.154,300.162 235.685 C 299.422 232.802,298.502 230.814,297.778 230.536 C 297.231 230.326,296.966 229.633,295.789 225.323 C 295.477 224.180,294.511 222.306,293.643 221.159 C 292.383 219.495,292.009 218.600,291.793 216.737 C 291.591 215.001,291.249 214.108,290.461 213.264 C 289.877 212.638,289.197 211.693,288.950 211.163 C 288.027 209.188,287.600 207.941,287.600 207.219 C 287.600 206.255,285.947 203.156,285.300 202.907 C 285.025 202.801,284.800 202.461,284.800 202.152 C 284.800 201.842,284.638 201.277,284.439 200.895 C 284.240 200.513,283.887 199.480,283.653 198.600 C 283.419 197.720,283.121 196.600,282.990 196.111 C 282.860 195.621,282.116 194.295,281.338 193.164 C 280.560 192.033,279.649 190.003,279.314 188.654 C 278.934 187.125,278.132 185.432,277.186 184.162 C 276.153 182.775,275.574 181.499,275.374 180.169 C 275.019 177.800,274.272 175.924,273.394 175.195 C 272.492 174.447,271.202 171.823,271.191 170.716 C 271.180 169.582,269.952 166.825,268.687 165.097 C 268.165 164.384,267.515 162.990,267.242 162.000 C 266.172 158.117,265.850 157.337,264.601 155.600 C 263.889 154.610,263.080 152.810,262.804 151.600 C 262.174 148.841,261.673 147.766,260.357 146.356 C 259.391 145.320,259.110 144.580,258.017 140.187 C 257.797 139.300,256.982 137.882,256.208 137.037 C 255.434 136.191,254.800 135.130,254.800 134.678 C 254.800 132.192,252.906 128.464,251.300 127.788 C 249.843 127.175,249.791 127.014,250.600 125.600 C 251.741 123.604,249.926 121.200,247.278 121.200 C 247.096 121.200,246.522 120.435,246.002 119.500 C 245.143 117.955,244.103 116.774,242.980 116.065 C 242.749 115.919,242.077 114.964,241.487 113.941 C 240.897 112.919,239.601 111.130,238.607 109.965 C 237.613 108.801,236.800 107.531,236.800 107.143 C 236.800 106.755,236.083 105.862,235.208 105.158 C 234.332 104.454,233.499 103.511,233.356 103.063 C 233.214 102.614,232.131 101.295,230.949 100.132 C 229.767 98.969,228.800 97.806,228.800 97.547 C 228.800 97.288,228.125 96.429,227.300 95.637 C 226.475 94.846,225.260 93.098,224.600 91.752 C 223.935 90.398,222.941 89.042,222.372 88.713 C 221.807 88.387,220.957 87.296,220.484 86.290 C 220.004 85.268,219.096 84.148,218.429 83.753 C 217.772 83.365,217.030 82.556,216.782 81.956 C 216.533 81.355,215.542 80.126,214.580 79.224 C 213.617 78.322,212.548 76.989,212.203 76.263 C 211.858 75.536,210.864 74.154,209.993 73.192 C 209.123 72.231,208.219 70.863,207.984 70.153 C 207.750 69.443,206.758 68.206,205.779 67.404 C 204.801 66.603,204.000 65.669,204.000 65.330 C 204.000 64.991,203.010 63.739,201.800 62.548 C 200.590 61.357,199.600 60.178,199.600 59.927 C 199.600 59.676,198.994 58.915,198.252 58.235 C 196.071 56.236,194.400 52.740,194.400 50.175 L 194.400 48.000 192.200 48.000 C 190.710 48.000,189.998 48.161,189.994 48.500 C 189.989 48.857,189.904 48.871,189.694 48.547 C 189.196 47.781,187.373 48.033,186.779 48.950 M326.183 49.700 C 326.468 51.603,326.480 60.948,326.199 62.404 C 326.100 62.921,326.194 67.137,326.410 71.772 C 326.754 79.196,326.914 81.225,327.217 82.000 C 327.260 82.110,327.263 82.365,327.225 82.568 C 327.186 82.770,327.439 82.699,327.787 82.411 C 328.331 81.959,328.381 81.991,328.150 82.643 C 327.931 83.263,327.980 83.310,328.421 82.900 C 329.064 82.303,329.750 82.233,329.400 82.800 C 329.264 83.020,329.488 83.200,329.898 83.200 C 330.492 83.200,330.664 83.544,330.743 84.888 C 331.088 90.726,331.254 84.652,331.161 69.600 C 331.102 60.030,330.903 52.097,330.718 51.971 C 330.199 51.617,329.992 50.000,330.466 50.000 C 330.697 50.000,330.782 50.270,330.655 50.600 C 330.529 50.930,330.599 51.200,330.813 51.200 C 331.270 51.200,331.330 50.264,330.900 49.833 C 330.735 49.668,330.600 49.328,330.600 49.076 C 330.600 48.131,328.450 47.779,327.829 48.623 C 327.296 49.347,327.239 49.352,326.986 48.700 C 326.454 47.329,325.927 47.986,326.183 49.700 M329.696 49.341 C 329.935 49.193,330.008 49.263,329.861 49.501 C 329.717 49.734,329.224 49.827,328.766 49.707 C 328.135 49.542,328.062 49.408,328.466 49.157 C 328.769 48.969,329.058 48.994,329.134 49.215 C 329.208 49.430,329.461 49.486,329.696 49.341 M331.217 99.000 C 331.175 99.660,331.044 100.650,330.926 101.200 C 330.309 104.081,330.631 131.600,331.282 131.600 C 331.483 131.600,331.527 131.795,331.380 132.033 C 331.220 132.291,331.412 132.433,331.856 132.386 C 333.230 132.241,333.526 132.396,333.328 133.155 C 333.219 133.570,333.309 134.020,333.528 134.155 C 333.763 134.301,333.840 134.073,333.716 133.601 C 333.599 133.153,333.704 132.800,333.953 132.800 C 334.199 132.800,334.400 132.429,334.400 131.976 C 334.400 131.520,334.581 131.265,334.807 131.404 C 335.030 131.542,335.103 131.833,334.969 132.050 C 334.573 132.691,334.482 134.397,334.856 134.165 C 335.045 134.048,335.200 134.133,335.200 134.353 C 335.200 134.573,335.037 134.854,334.838 134.977 C 334.384 135.257,334.756 136.800,335.277 136.800 C 335.749 136.800,335.615 106.747,335.136 105.016 C 334.939 104.307,334.966 103.674,335.204 103.436 C 335.828 102.812,335.667 102.000,334.920 102.000 C 334.391 102.000,334.347 101.893,334.720 101.520 C 335.440 100.800,335.303 100.235,334.300 99.791 C 333.805 99.571,333.425 99.078,333.456 98.696 C 333.486 98.313,333.249 98.000,332.929 98.000 C 332.529 98.000,332.425 98.250,332.599 98.797 C 332.790 99.400,332.705 99.538,332.249 99.363 C 331.917 99.236,331.566 98.832,331.469 98.466 C 331.372 98.100,331.259 98.340,331.217 99.000 M334.133 99.000 C 334.133 99.330,334.368 99.600,334.654 99.600 C 334.953 99.600,335.077 99.344,334.945 99.000 C 334.818 98.670,334.584 98.400,334.424 98.400 C 334.264 98.400,334.133 98.670,334.133 99.000 M245.464 125.857 C 246.239 126.225,246.968 126.772,247.083 127.072 C 247.300 127.638,128.083 247.200,127.302 247.200 C 125.701 247.200,125.350 245.155,124.414 230.400 C 124.198 226.990,123.649 221.140,123.194 217.400 C 122.242 209.575,121.764 202.683,121.197 188.600 C 120.420 169.277,120.155 165.507,118.415 149.000 C 117.866 143.791,117.073 127.309,117.338 126.618 C 117.472 126.268,117.991 125.819,118.491 125.622 C 120.390 124.873,243.872 125.102,245.464 125.857 M336.246 148.625 C 336.114 148.969,335.824 149.139,335.603 149.002 C 335.351 148.846,335.189 149.625,335.169 151.076 C 335.153 152.354,335.059 153.760,334.961 154.200 C 334.681 155.457,334.704 174.707,334.989 177.611 C 335.357 181.364,335.365 181.399,336.107 182.446 C 336.479 182.971,336.683 183.099,336.561 182.731 C 336.402 182.254,336.542 182.092,337.047 182.166 C 337.437 182.223,337.826 182.479,337.912 182.735 C 337.997 182.991,338.322 183.200,338.633 183.200 C 338.945 183.200,339.200 183.492,339.200 183.849 C 339.200 184.410,339.105 184.423,338.500 183.949 C 337.871 183.456,337.854 183.469,338.328 184.074 C 338.618 184.445,339.009 185.255,339.197 185.874 C 339.395 186.527,339.500 180.021,339.447 170.400 C 339.397 161.270,339.214 153.440,339.040 153.000 C 338.790 152.366,338.814 152.324,339.156 152.800 C 339.504 153.284,339.589 153.292,339.594 152.844 C 339.597 152.538,339.285 152.049,338.900 151.757 C 338.233 151.251,338.233 151.225,338.900 151.213 C 339.510 151.202,339.484 151.084,338.700 150.300 C 338.205 149.805,337.642 149.453,337.449 149.517 C 337.256 149.581,337.194 149.266,337.311 148.817 C 337.565 147.846,336.611 147.674,336.246 148.625 M339.309 191.600 C 339.309 192.590,339.387 192.995,339.482 192.500 C 339.578 192.005,339.578 191.195,339.482 190.700 C 339.387 190.205,339.309 190.610,339.309 191.600 M339.569 198.656 C 339.553 199.065,339.479 199.711,339.406 200.091 C 338.835 203.064,338.527 218.165,338.938 223.000 C 339.069 224.540,339.209 227.096,339.248 228.680 C 339.301 230.781,339.477 231.621,339.902 231.784 C 340.221 231.906,340.381 232.273,340.256 232.599 C 340.131 232.924,340.157 233.171,340.314 233.148 C 341.396 232.987,342.807 233.266,342.600 233.600 C 342.464 233.820,342.543 234.000,342.776 234.000 C 343.009 234.000,343.200 233.730,343.200 233.400 C 343.200 233.070,343.016 232.800,342.791 232.800 C 342.566 232.800,342.654 232.383,342.988 231.874 C 343.831 230.589,343.815 200.000,342.972 200.000 C 342.684 200.000,342.342 199.829,342.213 199.621 C 342.084 199.412,342.333 199.310,342.766 199.393 C 343.336 199.503,343.490 199.378,343.322 198.940 C 343.185 198.585,342.782 198.416,342.344 198.530 C 341.934 198.638,341.700 198.562,341.823 198.363 C 341.946 198.163,341.746 198.000,341.377 198.000 C 340.882 198.000,340.766 198.235,340.933 198.900 L 341.159 199.800 340.379 198.856 C 339.685 198.014,339.597 197.992,339.569 198.656 M343.598 250.600 C 343.567 252.140,343.440 253.850,343.316 254.400 C 342.746 256.947,343.061 277.346,343.740 281.790 C 343.885 282.735,345.600 283.746,345.600 282.886 C 345.600 282.713,345.928 282.571,346.328 282.571 C 346.876 282.571,347.023 282.822,346.923 283.586 C 346.806 284.470,346.834 284.497,347.141 283.800 L 347.492 283.000 347.719 283.800 C 347.844 284.240,347.886 277.850,347.812 269.600 C 347.739 261.350,347.543 254.167,347.376 253.637 C 347.161 252.952,347.207 252.757,347.537 252.961 C 347.815 253.133,348.000 252.988,348.000 252.600 C 348.000 252.244,347.832 252.056,347.628 252.183 C 347.423 252.309,347.130 252.210,346.976 251.962 C 346.823 251.714,346.946 251.353,347.249 251.161 C 347.672 250.893,347.614 250.804,347.000 250.778 C 346.212 250.744,346.212 250.739,346.985 250.437 C 347.689 250.162,347.654 250.100,346.644 249.847 C 345.777 249.629,345.563 249.383,345.721 248.782 C 345.979 247.795,344.999 247.723,344.600 248.700 C 344.338 249.343,344.287 249.334,343.985 248.600 C 343.763 248.060,343.637 248.709,343.598 250.600 M347.724 290.200 C 347.726 291.520,347.801 292.012,347.890 291.293 C 347.979 290.574,347.977 289.494,347.886 288.893 C 347.795 288.292,347.722 288.880,347.724 290.200 M348.404 298.900 C 347.712 299.957,347.753 299.677,347.410 305.800 C 347.262 308.440,347.078 311.410,347.002 312.400 C 346.643 317.060,347.614 331.253,348.352 332.142 C 348.636 332.485,348.754 332.951,348.614 333.178 C 348.462 333.424,348.608 333.495,348.977 333.354 C 349.317 333.223,349.496 332.955,349.374 332.758 C 349.252 332.561,349.444 332.400,349.800 332.400 C 350.211 332.400,350.338 332.582,350.147 332.900 C 349.943 333.240,350.063 333.224,350.523 332.851 C 350.964 332.493,351.200 332.458,351.200 332.751 C 351.200 332.998,351.380 333.200,351.600 333.200 C 352.135 333.200,352.110 331.352,351.560 330.325 C 351.242 329.731,351.242 329.578,351.559 329.775 C 351.874 329.969,351.991 326.268,351.973 316.630 C 351.959 309.248,351.787 303.116,351.591 302.995 C 351.395 302.873,351.325 302.539,351.436 302.251 C 351.546 301.964,351.360 301.499,351.023 301.219 C 350.384 300.689,350.570 299.811,351.234 300.221 C 351.443 300.350,351.509 300.623,351.383 300.828 C 351.256 301.032,351.343 301.200,351.576 301.200 C 352.117 301.200,352.130 300.128,351.593 299.796 C 351.370 299.658,351.285 299.386,351.405 299.192 C 351.643 298.807,350.369 298.000,349.523 298.000 C 349.231 298.000,348.727 298.405,348.404 298.900 M350.496 299.341 C 350.735 299.193,350.808 299.263,350.661 299.501 C 350.517 299.734,350.024 299.827,349.566 299.707 C 348.935 299.542,348.862 299.408,349.266 299.157 C 349.569 298.969,349.858 298.994,349.934 299.215 C 350.008 299.430,350.261 299.486,350.496 299.341 " stroke="none" fill="#db1c63" fill-rule="evenodd"></path><path id="path3" d="M185.867 48.267 C 185.720 48.413,185.603 49.178,185.606 49.967 C 185.611 50.994,185.716 51.235,185.980 50.819 C 186.182 50.500,186.271 50.115,186.178 49.964 C 186.085 49.814,186.277 49.468,186.604 49.196 C 186.932 48.924,187.200 48.544,187.200 48.351 C 187.200 47.940,186.254 47.880,185.867 48.267 M328.466 49.157 C 328.062 49.408,328.135 49.542,328.766 49.707 C 329.224 49.827,329.717 49.734,329.861 49.501 C 330.008 49.263,329.935 49.193,329.696 49.341 C 329.461 49.486,329.208 49.430,329.134 49.215 C 329.058 48.994,328.769 48.969,328.466 49.157 M181.801 52.798 C 181.359 53.514,181.231 54.828,181.627 54.583 C 181.840 54.452,181.922 54.198,181.811 54.018 C 181.700 53.838,181.985 53.593,182.445 53.472 C 182.904 53.352,183.162 53.062,183.017 52.827 C 182.685 52.291,182.123 52.278,181.801 52.798 M177.467 56.667 C 177.320 56.813,177.203 57.308,177.206 57.767 C 177.211 58.397,177.297 58.465,177.561 58.049 C 177.753 57.746,178.115 57.624,178.365 57.778 C 178.619 57.936,178.771 57.848,178.710 57.580 C 178.649 57.316,178.850 57.009,179.156 56.898 C 179.493 56.775,179.603 56.872,179.435 57.144 C 179.259 57.428,179.384 57.504,179.777 57.354 C 180.117 57.223,180.296 56.955,180.174 56.758 C 179.917 56.343,177.860 56.273,177.467 56.667 M169.200 65.567 C 169.200 65.989,169.096 66.664,168.970 67.067 C 168.777 67.682,168.820 67.671,169.238 67.000 C 169.512 66.560,170.093 65.885,170.529 65.500 C 171.311 64.810,171.307 64.800,170.261 64.800 C 169.482 64.800,169.200 65.004,169.200 65.567 M165.900 69.087 C 165.026 69.219,164.800 69.466,164.800 70.288 C 164.800 71.309,164.809 71.312,165.500 70.529 C 165.885 70.093,166.560 69.531,167.000 69.280 C 167.822 68.812,167.773 68.803,165.900 69.087 M156.667 77.467 C 156.273 77.860,156.343 79.917,156.758 80.174 C 156.955 80.296,157.223 80.117,157.354 79.777 C 157.504 79.384,157.428 79.259,157.144 79.435 C 156.872 79.603,156.775 79.493,156.898 79.156 C 157.009 78.850,157.316 78.649,157.580 78.710 C 157.848 78.771,157.936 78.619,157.778 78.365 C 157.624 78.115,157.746 77.753,158.049 77.561 C 158.465 77.297,158.397 77.211,157.767 77.206 C 157.308 77.203,156.813 77.320,156.667 77.467 M152.885 81.840 C 152.327 82.252,152.295 82.443,152.713 82.866 C 153.133 83.292,153.268 83.225,153.459 82.498 C 153.586 82.009,153.838 81.700,154.018 81.811 C 154.198 81.922,154.439 81.860,154.555 81.673 C 154.879 81.149,153.655 81.271,152.885 81.840 M148.138 86.217 C 147.797 87.106,148.273 87.403,149.031 86.775 C 149.388 86.478,149.949 86.196,150.277 86.148 C 151.542 85.962,151.263 85.600,149.854 85.600 C 148.890 85.600,148.292 85.815,148.138 86.217 M144.583 89.906 C 143.938 90.360,143.899 92.414,144.539 92.168 C 145.158 91.930,145.256 90.800,144.657 90.800 C 144.431 90.800,144.596 90.536,145.024 90.213 C 145.794 89.630,145.382 89.343,144.583 89.906 M139.820 94.693 C 139.438 95.687,139.605 95.827,140.213 95.024 C 140.536 94.596,140.800 94.431,140.800 94.657 C 140.800 95.244,141.928 95.164,142.160 94.561 C 142.290 94.221,141.974 94.066,141.197 94.088 C 140.560 94.106,139.940 94.378,139.820 94.693 M135.867 98.267 C 135.720 98.413,135.603 99.178,135.606 99.967 C 135.611 100.994,135.716 101.235,135.980 100.819 C 136.182 100.500,136.271 100.115,136.178 99.964 C 136.085 99.814,136.277 99.468,136.604 99.196 C 136.932 98.924,137.200 98.544,137.200 98.351 C 137.200 97.940,136.254 97.880,135.867 98.267 M131.801 102.798 C 131.359 103.514,131.231 104.828,131.627 104.583 C 131.840 104.452,131.922 104.198,131.811 104.018 C 131.700 103.838,131.985 103.593,132.445 103.472 C 132.904 103.352,133.162 103.062,133.017 102.827 C 132.685 102.291,132.123 102.278,131.801 102.798 M127.467 106.667 C 127.320 106.813,127.203 107.308,127.206 107.767 C 127.211 108.397,127.297 108.465,127.561 108.049 C 127.753 107.746,128.115 107.624,128.365 107.778 C 128.619 107.936,128.771 107.848,128.710 107.580 C 128.649 107.316,128.850 107.009,129.156 106.898 C 129.493 106.775,129.603 106.872,129.435 107.144 C 129.259 107.428,129.384 107.504,129.777 107.354 C 130.117 107.223,130.296 106.955,130.174 106.758 C 129.917 106.343,127.860 106.273,127.467 106.667 M119.200 115.567 C 119.200 115.989,119.096 116.664,118.970 117.067 C 118.777 117.682,118.820 117.671,119.238 117.000 C 119.512 116.560,120.093 115.885,120.529 115.500 C 121.311 114.810,121.307 114.800,120.261 114.800 C 119.482 114.800,119.200 115.004,119.200 115.567 M115.900 119.087 C 115.026 119.219,114.800 119.466,114.800 120.288 C 114.800 121.309,114.809 121.312,115.500 120.529 C 115.885 120.093,116.560 119.531,117.000 119.280 C 117.822 118.812,117.773 118.803,115.900 119.087 M106.667 127.467 C 106.273 127.860,106.343 129.917,106.758 130.174 C 106.955 130.296,107.223 130.117,107.354 129.777 C 107.504 129.384,107.428 129.259,107.144 129.435 C 106.872 129.603,106.775 129.493,106.898 129.156 C 107.009 128.850,107.316 128.649,107.580 128.710 C 107.848 128.771,107.936 128.619,107.778 128.365 C 107.624 128.115,107.746 127.753,108.049 127.561 C 108.465 127.297,108.397 127.211,107.767 127.206 C 107.308 127.203,106.813 127.320,106.667 127.467 M102.885 131.840 C 102.327 132.252,102.295 132.443,102.713 132.866 C 103.133 133.292,103.268 133.225,103.459 132.498 C 103.586 132.009,103.838 131.700,104.018 131.811 C 104.198 131.922,104.439 131.860,104.555 131.673 C 104.879 131.149,103.655 131.271,102.885 131.840 M98.138 136.217 C 97.797 137.106,98.273 137.403,99.031 136.775 C 99.388 136.478,99.949 136.196,100.277 136.148 C 101.542 135.962,101.263 135.600,99.854 135.600 C 98.890 135.600,98.292 135.815,98.138 136.217 M94.583 139.906 C 93.938 140.360,93.899 142.414,94.539 142.168 C 95.158 141.930,95.256 140.800,94.657 140.800 C 94.431 140.800,94.596 140.536,95.024 140.213 C 95.794 139.630,95.382 139.343,94.583 139.906 M89.820 144.693 C 89.438 145.687,89.605 145.827,90.213 145.024 C 90.536 144.596,90.800 144.431,90.800 144.657 C 90.800 145.244,91.928 145.164,92.160 144.561 C 92.290 144.221,91.974 144.066,91.197 144.088 C 90.560 144.106,89.940 144.378,89.820 144.693 M85.867 148.267 C 85.720 148.413,85.603 149.178,85.606 149.967 C 85.611 150.994,85.716 151.235,85.980 150.819 C 86.182 150.500,86.271 150.115,86.178 149.964 C 86.085 149.814,86.277 149.468,86.604 149.196 C 86.932 148.924,87.200 148.544,87.200 148.351 C 87.200 147.940,86.254 147.880,85.867 148.267 M337.200 149.167 C 337.200 149.405,337.367 149.555,337.572 149.500 C 337.776 149.445,338.246 149.760,338.616 150.200 C 339.261 150.969,339.265 150.962,338.710 150.022 C 338.085 148.966,337.200 148.464,337.200 149.167 M81.801 152.798 C 81.359 153.514,81.231 154.828,81.627 154.583 C 81.840 154.452,81.922 154.198,81.811 154.018 C 81.700 153.838,81.985 153.593,82.445 153.472 C 82.904 153.352,83.162 153.062,83.017 152.827 C 82.685 152.291,82.123 152.278,81.801 152.798 M77.467 156.667 C 77.320 156.813,77.203 157.308,77.206 157.767 C 77.211 158.397,77.297 158.465,77.561 158.049 C 77.753 157.746,78.115 157.624,78.365 157.778 C 78.619 157.936,78.771 157.848,78.710 157.580 C 78.649 157.316,78.850 157.009,79.156 156.898 C 79.493 156.775,79.603 156.872,79.435 157.144 C 79.259 157.428,79.384 157.504,79.777 157.354 C 80.117 157.223,80.296 156.955,80.174 156.758 C 79.917 156.343,77.860 156.273,77.467 156.667 M69.200 165.567 C 69.200 165.989,69.096 166.664,68.970 167.067 C 68.777 167.682,68.820 167.671,69.238 167.000 C 69.512 166.560,70.093 165.885,70.529 165.500 C 71.311 164.810,71.307 164.800,70.261 164.800 C 69.482 164.800,69.200 165.004,69.200 165.567 M65.900 169.087 C 65.026 169.219,64.800 169.466,64.800 170.288 C 64.800 171.309,64.809 171.312,65.500 170.529 C 65.885 170.093,66.560 169.531,67.000 169.280 C 67.822 168.812,67.773 168.803,65.900 169.087 M56.667 177.467 C 56.273 177.860,56.343 179.917,56.758 180.174 C 56.955 180.296,57.223 180.117,57.354 179.777 C 57.504 179.384,57.428 179.259,57.144 179.435 C 56.872 179.603,56.775 179.493,56.898 179.156 C 57.009 178.850,57.316 178.649,57.580 178.710 C 57.848 178.771,57.936 178.619,57.778 178.365 C 57.624 178.115,57.746 177.753,58.049 177.561 C 58.465 177.297,58.397 177.211,57.767 177.206 C 57.308 177.203,56.813 177.320,56.667 177.467 M52.885 181.840 C 52.327 182.252,52.295 182.443,52.713 182.866 C 53.133 183.292,53.268 183.225,53.459 182.498 C 53.586 182.009,53.838 181.700,54.018 181.811 C 54.198 181.922,54.439 181.860,54.555 181.673 C 54.879 181.149,53.655 181.271,52.885 181.840 M48.138 186.217 C 47.797 187.106,48.273 187.403,49.031 186.775 C 49.388 186.478,49.949 186.196,50.277 186.148 C 51.542 185.962,51.263 185.600,49.854 185.600 C 48.890 185.600,48.292 185.815,48.138 186.217 M48.006 256.476 C 48.002 302.488,48.127 322.031,48.427 322.217 C 48.662 322.362,48.754 322.742,48.632 323.061 C 48.507 323.385,48.584 323.534,48.805 323.397 C 49.540 322.942,50.075 323.627,49.519 324.312 C 49.187 324.723,49.170 324.852,49.472 324.670 C 49.732 324.514,50.060 324.573,50.200 324.800 C 50.340 325.027,50.651 325.092,50.889 324.945 C 51.149 324.785,51.209 324.863,51.038 325.138 C 50.881 325.392,50.943 325.600,51.176 325.600 C 51.409 325.600,51.730 325.645,51.890 325.700 C 52.049 325.755,52.230 325.170,52.292 324.400 C 52.395 323.126,55.577 319.827,87.702 287.699 L 122.999 252.399 124.972 252.661 C 126.057 252.804,127.514 253.308,128.209 253.780 C 128.905 254.252,130.807 254.958,132.437 255.348 C 134.387 255.814,135.673 256.367,136.200 256.966 C 137.351 258.273,138.570 258.827,141.749 259.484 C 144.063 259.963,144.809 260.324,145.985 261.533 C 147.215 262.797,147.870 263.093,150.708 263.671 C 153.276 264.194,154.257 264.595,155.152 265.490 C 155.784 266.122,156.998 266.841,157.850 267.088 C 158.703 267.336,160.349 267.816,161.508 268.157 C 162.668 268.497,164.288 269.312,165.108 269.968 C 166.074 270.741,167.784 271.471,169.960 272.042 C 172.475 272.701,173.583 273.211,174.360 274.066 C 175.360 275.167,178.799 276.400,180.866 276.400 C 181.320 276.400,182.258 277.018,182.950 277.773 C 184.423 279.381,185.715 279.946,189.000 280.419 C 190.792 280.677,191.603 281.010,192.200 281.734 C 193.173 282.914,194.748 283.714,197.400 284.373 C 200.179 285.063,202.315 286.001,202.559 286.637 C 202.819 287.316,204.720 288.096,207.800 288.788 C 209.318 289.129,210.641 289.731,211.400 290.427 C 212.792 291.704,215.251 292.800,216.720 292.800 C 218.357 292.800,220.226 293.639,220.629 294.554 C 221.128 295.690,223.310 296.662,226.067 296.975 C 227.945 297.188,228.619 297.493,229.991 298.747 C 231.117 299.776,232.313 300.417,233.724 300.747 C 237.619 301.659,239.000 302.166,239.694 302.938 C 240.707 304.062,242.024 304.656,245.253 305.441 C 247.203 305.915,248.395 306.449,248.963 307.104 C 249.878 308.160,251.443 308.918,253.578 309.339 C 256.604 309.936,258.000 310.457,258.000 310.988 C 258.000 311.976,260.124 313.052,263.184 313.613 C 265.556 314.048,266.443 314.419,267.508 315.424 C 268.806 316.649,269.687 317.019,273.702 318.027 C 274.748 318.290,276.368 319.076,277.302 319.774 C 278.980 321.028,279.924 321.415,283.769 322.425 C 284.958 322.738,286.147 323.392,286.769 324.077 C 287.778 325.187,291.218 326.400,293.355 326.400 C 293.896 326.400,294.802 326.983,295.564 327.821 C 297.070 329.476,298.124 329.947,301.370 330.416 C 303.115 330.669,303.989 331.027,304.683 331.776 C 305.871 333.058,307.262 333.757,309.800 334.351 C 312.221 334.916,314.800 336.000,314.800 336.450 C 314.800 337.021,317.265 338.084,320.307 338.826 C 322.413 339.340,323.458 339.820,324.019 340.533 C 324.792 341.517,327.806 342.800,329.343 342.800 C 331.122 342.800,332.662 343.697,333.033 344.950 C 333.501 346.529,334.832 347.185,337.600 347.200 C 340.355 347.215,340.988 347.612,341.046 349.357 C 341.128 351.806,341.341 352.000,343.945 352.000 C 346.218 352.000,347.478 351.266,346.376 350.585 C 346.162 350.453,346.093 350.173,346.223 349.963 C 347.293 348.232,344.829 346.189,340.228 344.991 C 338.886 344.641,337.516 343.945,336.772 343.233 C 336.079 342.571,334.545 341.762,333.270 341.387 C 329.632 340.315,328.685 339.908,327.200 338.780 C 325.746 337.675,324.952 337.340,321.104 336.205 C 319.841 335.833,318.269 335.025,317.611 334.410 C 316.953 333.796,315.917 333.202,315.307 333.091 C 312.375 332.558,309.404 331.498,308.925 330.814 C 308.343 329.983,306.214 328.800,305.300 328.800 C 303.940 328.800,300.300 327.465,299.486 326.667 C 298.438 325.641,295.884 324.400,294.820 324.400 C 293.748 324.400,290.750 323.031,289.773 322.096 C 289.318 321.661,288.328 321.102,287.573 320.855 C 284.029 319.696,282.335 319.200,281.922 319.200 C 281.674 319.200,281.005 318.701,280.436 318.091 C 279.401 316.983,278.360 316.536,274.600 315.587 C 273.500 315.310,272.150 314.695,271.600 314.222 C 270.445 313.228,269.213 312.627,267.100 312.026 C 263.409 310.977,262.608 310.645,261.783 309.819 C 260.871 308.907,259.855 308.450,256.800 307.580 C 254.803 307.011,252.000 305.606,252.000 305.175 C 252.000 304.801,250.370 304.178,246.999 303.265 C 245.106 302.752,243.762 302.098,242.852 301.249 C 242.112 300.557,241.033 299.895,240.453 299.776 C 239.513 299.584,238.622 299.362,235.765 298.608 C 235.306 298.486,234.360 297.879,233.664 297.258 C 232.439 296.164,231.447 295.763,227.563 294.791 C 226.552 294.538,225.137 293.829,224.418 293.215 C 223.699 292.602,222.006 291.787,220.655 291.406 C 217.524 290.521,216.527 290.071,214.800 288.768 C 214.030 288.186,212.770 287.522,212.000 287.291 C 207.594 285.970,206.275 285.404,205.157 284.359 C 204.474 283.722,203.632 283.200,203.286 283.200 C 202.940 283.200,202.104 283.032,201.428 282.827 C 200.753 282.622,199.444 282.236,198.521 281.970 C 197.597 281.704,196.751 281.250,196.640 280.961 C 196.344 280.188,193.737 279.009,191.000 278.409 C 189.619 278.106,187.980 277.403,187.139 276.753 C 185.680 275.626,184.199 274.973,180.800 273.958 C 179.810 273.663,178.221 272.831,177.269 272.110 C 176.317 271.390,175.057 270.690,174.469 270.556 C 173.881 270.422,172.629 270.062,171.686 269.756 C 170.743 269.450,169.784 269.200,169.555 269.200 C 169.326 269.200,168.626 268.687,167.999 268.060 C 167.365 267.427,166.002 266.694,164.929 266.411 C 161.214 265.429,159.456 264.757,158.831 264.078 C 157.971 263.146,156.608 262.516,154.000 261.842 C 150.941 261.053,150.398 260.811,148.773 259.519 C 147.974 258.883,146.213 258.097,144.773 257.734 C 143.336 257.371,141.229 256.432,140.000 255.606 C 138.728 254.751,136.619 253.821,135.000 253.402 C 133.460 253.003,131.404 252.164,130.431 251.538 C 129.459 250.912,128.259 250.400,127.765 250.400 C 125.559 250.400,118.280 245.861,116.902 243.626 C 116.629 243.182,115.729 242.472,114.902 242.048 C 114.076 241.625,112.950 240.791,112.400 240.196 C 111.850 239.602,110.590 238.563,109.600 237.888 C 108.610 237.214,107.241 236.198,106.557 235.631 C 104.087 233.582,103.587 233.200,103.379 233.200 C 103.147 233.200,102.957 233.046,100.650 230.985 C 99.797 230.223,98.872 229.600,98.593 229.600 C 98.315 229.600,97.207 228.725,96.132 227.655 C 95.056 226.585,93.785 225.586,93.306 225.434 C 92.827 225.282,92.018 224.661,91.507 224.054 C 90.997 223.448,89.504 222.220,88.190 221.325 C 86.875 220.431,85.090 219.047,84.222 218.250 C 83.354 217.452,82.441 216.800,82.193 216.800 C 81.946 216.800,80.713 215.810,79.453 214.600 C 78.194 213.390,76.951 212.400,76.691 212.400 C 76.430 212.400,75.584 211.707,74.809 210.859 C 74.034 210.012,72.680 208.936,71.800 208.469 C 70.920 208.002,69.311 206.805,68.225 205.810 C 67.139 204.814,66.096 204.000,65.908 204.000 C 65.515 204.000,64.641 203.323,63.672 202.269 C 63.302 201.866,62.190 201.065,61.200 200.488 C 59.559 199.531,58.232 198.377,57.921 197.638 C 57.854 197.480,56.997 196.912,56.015 196.375 C 54.442 195.515,52.755 193.665,52.299 192.298 C 52.207 192.020,51.453 191.876,50.408 191.938 C 49.321 192.002,48.549 191.846,48.342 191.520 C 48.161 191.234,48.009 220.464,48.006 256.476 M345.600 249.153 C 345.600 249.348,345.970 249.604,346.423 249.722 C 347.098 249.898,347.161 249.835,346.774 249.369 C 346.246 248.732,345.600 248.614,345.600 249.153 M52.000 323.285 C 52.000 323.458,51.809 323.600,51.576 323.600 C 51.343 323.600,51.245 323.750,51.359 323.933 C 51.472 324.117,51.339 324.267,51.063 324.267 C 50.786 324.267,50.536 323.949,50.507 323.560 C 50.472 323.093,50.715 322.873,51.227 322.912 C 51.652 322.944,52.000 323.112,52.000 323.285 M52.586 326.777 C 52.711 326.980,52.274 327.112,51.614 327.073 C 50.954 327.033,50.411 327.180,50.407 327.400 C 50.403 327.620,50.535 327.803,50.700 327.806 C 50.865 327.809,51.210 327.946,51.466 328.109 C 51.722 328.272,52.023 328.179,52.134 327.902 C 52.256 327.599,52.349 327.678,52.368 328.100 C 52.408 328.980,52.734 328.983,53.693 328.116 C 54.345 327.526,54.500 327.512,54.818 328.016 C 55.341 328.843,55.286 329.208,54.674 328.973 C 54.385 328.862,53.710 328.962,53.174 329.195 L 52.200 329.618 53.215 329.423 C 53.774 329.315,54.742 329.492,55.367 329.817 C 56.143 330.219,56.380 330.247,56.114 329.903 C 55.291 328.840,55.276 328.165,56.074 328.104 C 56.638 328.062,56.750 328.180,56.470 328.523 C 56.210 328.841,56.254 329.160,56.604 329.482 C 57.218 330.047,57.728 329.200,57.357 328.232 C 57.216 327.865,57.469 327.596,58.069 327.474 C 58.581 327.369,57.785 327.330,56.300 327.388 C 54.815 327.445,53.600 327.356,53.600 327.189 C 53.600 327.022,53.321 326.778,52.979 326.647 C 52.638 326.516,52.461 326.575,52.586 326.777 M102.538 332.179 C 102.928 333.006,103.421 333.321,104.790 333.619 C 104.894 333.641,105.045 333.466,105.123 333.230 C 105.202 332.993,105.005 332.900,104.685 333.023 C 104.014 333.280,102.681 332.116,103.020 331.568 C 103.145 331.365,102.984 331.200,102.661 331.200 C 102.180 331.200,102.158 331.376,102.538 332.179 M104.665 331.800 C 104.518 332.236,105.557 333.171,106.200 333.181 C 106.420 333.185,106.356 333.033,106.057 332.844 C 105.679 332.604,105.649 332.417,105.957 332.226 C 106.201 332.076,106.400 332.138,106.400 332.364 C 106.400 332.590,106.715 332.674,107.100 332.550 C 107.678 332.364,107.697 332.397,107.212 332.741 C 106.470 333.265,106.860 333.705,107.760 333.360 C 108.380 333.122,108.383 333.044,107.793 332.392 C 107.287 331.834,107.262 331.639,107.676 331.474 C 107.964 331.359,107.435 331.295,106.500 331.332 C 105.565 331.370,104.740 331.580,104.665 331.800 M154.700 335.515 C 153.894 335.680,153.759 336.636,154.500 336.935 C 154.861 337.081,154.867 337.146,154.524 337.168 C 154.262 337.186,153.936 337.020,153.800 336.800 C 153.664 336.580,153.259 336.400,152.900 336.400 C 152.352 336.400,152.372 336.495,153.024 336.987 C 154.127 337.822,154.771 337.736,155.188 336.700 L 155.549 335.800 155.575 336.676 C 155.589 337.158,155.420 337.664,155.200 337.800 C 154.980 337.936,154.800 338.239,154.800 338.473 C 154.800 338.754,154.990 338.740,155.361 338.432 C 155.792 338.075,155.972 338.087,156.136 338.483 C 156.254 338.767,156.257 338.306,156.144 337.457 C 156.002 336.397,156.074 335.999,156.375 336.185 C 156.616 336.333,156.743 336.578,156.657 336.728 C 156.571 336.877,156.645 337.360,156.822 337.800 C 157.112 338.520,157.147 338.498,157.172 337.580 C 157.187 337.019,157.425 336.323,157.700 336.033 C 158.109 335.602,157.966 335.539,156.910 335.683 C 156.200 335.779,155.570 335.749,155.510 335.615 C 155.449 335.481,155.085 335.436,154.700 335.515 M157.600 336.751 C 157.600 336.944,157.856 337.314,158.169 337.574 C 158.635 337.961,158.698 337.898,158.522 337.223 C 158.312 336.419,157.600 336.055,157.600 336.751 M204.643 340.233 C 204.510 340.579,204.580 340.736,204.805 340.597 C 205.022 340.463,205.200 340.513,205.200 340.710 C 205.200 341.299,204.718 341.597,204.244 341.299 C 203.420 340.782,202.061 340.777,201.765 341.290 C 201.604 341.571,201.618 341.668,201.796 341.506 C 201.975 341.345,202.377 341.525,202.690 341.906 C 203.003 342.288,203.173 342.420,203.068 342.200 C 202.956 341.966,203.590 341.800,204.600 341.800 C 205.548 341.800,206.136 341.916,205.908 342.057 C 205.662 342.209,205.821 342.490,206.293 342.743 C 207.253 343.257,207.772 342.889,207.148 342.137 C 206.815 341.737,206.829 341.600,207.200 341.600 C 207.597 341.600,207.597 341.479,207.200 341.000 C 206.856 340.585,206.841 340.400,207.151 340.400 C 207.398 340.400,207.600 340.220,207.600 340.000 C 207.600 339.780,207.330 339.600,207.000 339.600 C 206.670 339.600,206.397 339.825,206.394 340.100 C 206.390 340.410,206.276 340.448,206.094 340.200 C 205.622 339.558,204.895 339.575,204.643 340.233 M252.234 343.945 C 251.961 344.387,253.114 345.420,253.476 345.057 C 253.618 344.916,253.523 344.800,253.267 344.800 C 253.010 344.800,252.800 344.631,252.800 344.425 C 252.800 344.219,253.160 344.077,253.600 344.110 C 254.587 344.184,254.644 345.018,253.700 345.568 C 253.075 345.932,253.096 345.977,253.900 345.988 C 254.714 345.999,254.998 346.405,254.837 347.330 C 254.806 347.511,254.968 347.544,255.197 347.402 C 255.426 347.261,255.486 346.932,255.330 346.672 C 255.116 346.316,255.191 346.317,255.637 346.677 C 256.052 347.013,256.401 347.031,256.813 346.739 C 257.274 346.414,257.228 346.381,256.600 346.586 C 256.015 346.777,255.918 346.728,256.240 346.403 C 256.483 346.159,257.055 345.931,257.513 345.897 C 257.970 345.862,258.312 345.646,258.272 345.417 C 258.233 345.188,258.470 345.057,258.800 345.127 C 259.292 345.230,259.280 345.131,258.731 344.572 C 257.988 343.815,252.633 343.299,252.234 343.945 M302.000 348.294 C 302.000 348.504,302.356 348.998,302.791 349.391 C 303.225 349.785,303.492 350.250,303.384 350.426 C 303.276 350.601,303.398 350.875,303.655 351.034 C 303.935 351.207,304.017 351.151,303.858 350.894 C 303.712 350.658,303.904 350.153,304.284 349.773 C 304.939 349.118,305.003 349.150,305.503 350.377 C 305.932 351.429,306.138 351.583,306.598 351.201 C 306.910 350.943,307.323 350.829,307.516 350.948 C 307.709 351.067,307.867 350.911,307.867 350.600 C 307.867 350.289,307.733 350.118,307.569 350.219 C 307.142 350.483,306.000 349.984,306.000 349.534 C 306.000 349.324,306.193 349.272,306.430 349.418 C 306.666 349.564,306.622 349.305,306.333 348.842 C 306.044 348.379,305.536 348.014,305.204 348.032 C 304.793 348.053,304.760 348.128,305.100 348.265 C 305.977 348.619,305.637 349.134,304.600 349.020 C 304.050 348.959,303.594 349.110,303.587 349.355 C 303.579 349.600,303.219 349.375,302.787 348.856 C 302.354 348.336,302.000 348.083,302.000 348.294 " stroke="none" fill="#a71354" fill-rule="evenodd"></path><path id="path4" d="M337.436 148.297 C 337.309 148.424,337.576 148.788,338.028 149.105 C 338.481 149.422,338.900 149.618,338.959 149.541 C 339.158 149.280,337.669 148.064,337.436 148.297 M345.842 248.331 C 345.712 248.543,345.885 248.824,346.228 248.955 C 346.570 249.087,346.757 249.346,346.643 249.531 C 346.529 249.715,346.698 249.867,347.019 249.867 C 347.495 249.867,347.474 249.712,346.906 249.033 C 346.522 248.575,346.180 248.143,346.144 248.073 C 346.109 248.004,345.973 248.120,345.842 248.331 M87.702 287.699 C 56.607 318.798,52.392 323.156,52.300 324.308 C 52.242 325.027,52.061 325.612,51.897 325.608 C 51.734 325.604,51.409 325.600,51.176 325.600 C 50.943 325.600,50.881 325.392,51.038 325.138 C 51.209 324.863,51.149 324.785,50.889 324.945 C 50.651 325.092,50.340 325.027,50.200 324.800 C 50.060 324.573,49.732 324.514,49.472 324.670 C 49.170 324.852,49.187 324.723,49.519 324.312 C 50.075 323.627,49.540 322.942,48.805 323.397 C 48.584 323.534,48.507 323.385,48.632 323.061 C 48.754 322.742,48.655 322.358,48.412 322.208 C 48.099 322.014,47.993 323.052,48.050 325.767 C 48.094 327.875,48.291 329.600,48.488 329.600 C 48.686 329.600,48.736 329.780,48.600 330.001 C 47.988 330.990,51.467 331.152,73.952 331.184 C 99.043 331.220,99.042 331.220,98.281 332.448 C 97.897 333.068,97.911 333.294,98.351 333.567 C 98.654 333.756,98.779 334.111,98.628 334.355 C 98.476 334.600,98.498 334.814,98.676 334.831 C 98.854 334.847,99.360 334.947,99.800 335.052 C 101.927 335.559,113.349 335.607,113.664 335.111 C 113.897 334.743,113.989 334.734,113.994 335.078 C 113.999 335.440,118.078 335.563,130.853 335.587 C 149.150 335.621,148.523 335.565,148.135 337.125 C 147.885 338.128,147.916 338.160,148.599 337.600 C 149.285 337.038,149.301 337.057,148.848 337.906 C 148.342 338.856,149.057 339.583,149.953 339.029 C 150.169 338.896,150.453 338.962,150.585 339.176 C 150.736 339.421,159.509 339.575,174.200 339.590 C 199.130 339.617,199.033 339.612,198.281 340.888 C 197.909 341.520,197.908 341.744,198.278 341.878 C 198.540 341.974,198.645 342.340,198.510 342.691 C 198.346 343.116,198.421 343.234,198.732 343.042 C 198.989 342.883,199.200 342.932,199.200 343.150 C 199.200 343.409,207.685 343.561,223.483 343.585 C 248.487 343.624,248.745 343.640,248.189 345.151 C 248.077 345.454,248.304 345.943,248.693 346.238 C 249.159 346.592,249.222 346.779,248.876 346.787 C 248.120 346.806,248.685 347.538,249.508 347.606 C 249.889 347.637,260.906 347.750,273.992 347.857 C 298.708 348.058,298.676 348.055,298.164 349.700 C 298.042 350.093,298.152 350.400,298.416 350.400 C 298.676 350.400,298.779 350.677,298.647 351.021 C 298.516 351.362,298.575 351.539,298.777 351.414 C 298.979 351.289,299.252 351.360,299.383 351.572 C 299.845 352.321,341.624 352.128,341.337 351.379 C 341.202 351.029,341.072 350.119,341.046 349.357 C 340.988 347.612,340.355 347.215,337.600 347.200 C 334.832 347.185,333.501 346.529,333.033 344.950 C 332.662 343.697,331.122 342.800,329.343 342.800 C 327.806 342.800,324.792 341.517,324.019 340.533 C 323.458 339.820,322.413 339.340,320.307 338.826 C 317.265 338.084,314.800 337.021,314.800 336.450 C 314.800 336.000,312.221 334.916,309.800 334.351 C 307.262 333.757,305.871 333.058,304.683 331.776 C 303.989 331.027,303.115 330.669,301.370 330.416 C 298.124 329.947,297.070 329.476,295.564 327.821 C 294.802 326.983,293.896 326.400,293.355 326.400 C 291.218 326.400,287.778 325.187,286.769 324.077 C 286.147 323.392,284.958 322.738,283.769 322.425 C 279.924 321.415,278.980 321.028,277.302 319.774 C 276.368 319.076,274.748 318.290,273.702 318.027 C 269.687 317.019,268.806 316.649,267.508 315.424 C 266.443 314.419,265.556 314.048,263.184 313.613 C 260.124 313.052,258.000 311.976,258.000 310.988 C 258.000 310.457,256.604 309.936,253.578 309.339 C 251.443 308.918,249.878 308.160,248.963 307.104 C 248.395 306.449,247.203 305.915,245.253 305.441 C 242.024 304.656,240.707 304.062,239.694 302.938 C 239.000 302.166,237.619 301.659,233.724 300.747 C 232.313 300.417,231.117 299.776,229.991 298.747 C 228.619 297.493,227.945 297.188,226.067 296.975 C 223.310 296.662,221.128 295.690,220.629 294.554 C 220.226 293.639,218.357 292.800,216.720 292.800 C 215.251 292.800,212.792 291.704,211.400 290.427 C 210.641 289.731,209.318 289.129,207.800 288.788 C 204.720 288.096,202.819 287.316,202.559 286.637 C 202.315 286.001,200.179 285.063,197.400 284.373 C 194.748 283.714,193.173 282.914,192.200 281.734 C 191.603 281.010,190.792 280.677,189.000 280.419 C 185.715 279.946,184.423 279.381,182.950 277.773 C 182.258 277.018,181.320 276.400,180.866 276.400 C 178.799 276.400,175.360 275.167,174.360 274.066 C 173.583 273.211,172.475 272.701,169.960 272.042 C 167.784 271.471,166.074 270.741,165.108 269.968 C 164.288 269.312,162.668 268.497,161.508 268.157 C 160.349 267.816,158.703 267.336,157.850 267.088 C 156.998 266.841,155.784 266.122,155.152 265.490 C 154.257 264.595,153.276 264.194,150.708 263.671 C 147.870 263.093,147.215 262.797,145.985 261.533 C 144.809 260.324,144.063 259.963,141.749 259.484 C 138.570 258.827,137.351 258.273,136.200 256.966 C 135.673 256.367,134.387 255.814,132.437 255.348 C 130.807 254.958,128.905 254.252,128.209 253.780 C 127.514 253.308,126.057 252.804,124.972 252.661 L 122.999 252.399 87.702 287.699 M50.507 323.560 C 50.536 323.949,50.786 324.267,51.063 324.267 C 51.339 324.267,51.472 324.117,51.359 323.933 C 51.245 323.750,51.343 323.600,51.576 323.600 C 52.339 323.600,52.020 322.972,51.227 322.912 C 50.715 322.873,50.472 323.093,50.507 323.560 M53.600 327.189 C 53.600 327.356,54.815 327.445,56.300 327.388 C 57.785 327.330,58.581 327.369,58.069 327.474 C 57.469 327.596,57.216 327.865,57.357 328.232 C 57.728 329.200,57.218 330.047,56.604 329.482 C 56.254 329.160,56.210 328.841,56.470 328.523 C 56.750 328.180,56.638 328.062,56.074 328.104 C 55.276 328.165,55.291 328.840,56.114 329.903 C 56.380 330.247,56.143 330.219,55.367 329.817 C 54.742 329.492,53.774 329.315,53.215 329.423 L 52.200 329.618 53.174 329.195 C 53.710 328.962,54.385 328.862,54.674 328.973 C 55.286 329.208,55.341 328.843,54.818 328.016 C 54.500 327.512,54.345 327.526,53.693 328.116 C 52.734 328.983,52.408 328.980,52.368 328.100 C 52.349 327.678,52.256 327.599,52.134 327.902 C 52.023 328.179,51.722 328.272,51.466 328.109 C 51.210 327.946,50.865 327.809,50.700 327.806 C 50.535 327.803,50.403 327.620,50.407 327.400 C 50.411 327.180,50.954 327.033,51.614 327.073 C 52.274 327.112,52.711 326.980,52.586 326.777 C 52.461 326.575,52.638 326.516,52.979 326.647 C 53.321 326.778,53.600 327.022,53.600 327.189 M103.020 331.568 C 102.681 332.116,104.014 333.280,104.685 333.023 C 105.005 332.900,105.202 332.993,105.123 333.230 C 105.045 333.466,104.894 333.641,104.790 333.619 C 103.421 333.321,102.928 333.006,102.538 332.179 C 102.158 331.376,102.180 331.200,102.661 331.200 C 102.984 331.200,103.145 331.365,103.020 331.568 M107.676 331.474 C 107.262 331.639,107.287 331.834,107.793 332.392 C 108.383 333.044,108.380 333.122,107.760 333.360 C 106.860 333.705,106.470 333.265,107.212 332.741 C 107.697 332.397,107.678 332.364,107.100 332.550 C 106.715 332.674,106.400 332.590,106.400 332.364 C 106.400 332.138,106.201 332.076,105.957 332.226 C 105.649 332.417,105.679 332.604,106.057 332.844 C 106.356 333.033,106.420 333.185,106.200 333.181 C 104.100 333.147,104.381 331.417,106.500 331.332 C 107.435 331.295,107.964 331.359,107.676 331.474 M156.910 335.683 C 157.966 335.539,158.109 335.602,157.700 336.033 C 157.425 336.323,157.187 337.019,157.172 337.580 C 157.147 338.498,157.112 338.520,156.822 337.800 C 156.645 337.360,156.571 336.877,156.657 336.728 C 156.743 336.578,156.616 336.333,156.375 336.185 C 156.074 335.999,156.002 336.397,156.144 337.457 C 156.257 338.306,156.254 338.767,156.136 338.483 C 155.972 338.087,155.792 338.075,155.361 338.432 C 154.990 338.740,154.800 338.754,154.800 338.473 C 154.800 338.239,154.980 337.936,155.200 337.800 C 155.420 337.664,155.589 337.158,155.575 336.676 L 155.549 335.800 155.188 336.700 C 154.771 337.736,154.127 337.822,153.024 336.987 C 152.372 336.495,152.352 336.400,152.900 336.400 C 153.259 336.400,153.664 336.580,153.800 336.800 C 153.936 337.020,154.262 337.186,154.524 337.168 C 154.867 337.146,154.861 337.081,154.500 336.935 C 153.759 336.636,153.894 335.680,154.700 335.515 C 155.085 335.436,155.449 335.481,155.510 335.615 C 155.570 335.749,156.200 335.779,156.910 335.683 M158.522 337.223 C 158.698 337.898,158.635 337.961,158.169 337.574 C 157.532 337.046,157.414 336.400,157.953 336.400 C 158.148 336.400,158.404 336.770,158.522 337.223 M206.094 340.200 C 206.276 340.448,206.390 340.410,206.394 340.100 C 206.397 339.825,206.670 339.600,207.000 339.600 C 207.330 339.600,207.600 339.780,207.600 340.000 C 207.600 340.220,207.398 340.400,207.151 340.400 C 206.841 340.400,206.856 340.585,207.200 341.000 C 207.597 341.479,207.597 341.600,207.200 341.600 C 206.829 341.600,206.815 341.737,207.148 342.137 C 207.772 342.889,207.253 343.257,206.293 342.743 C 205.821 342.490,205.662 342.209,205.908 342.057 C 206.136 341.916,205.548 341.800,204.600 341.800 C 203.590 341.800,202.956 341.966,203.068 342.200 C 203.173 342.420,203.003 342.288,202.690 341.906 C 202.377 341.525,201.975 341.345,201.796 341.506 C 201.618 341.668,201.604 341.571,201.765 341.290 C 202.061 340.777,203.420 340.782,204.244 341.299 C 204.718 341.597,205.200 341.299,205.200 340.710 C 205.200 340.513,205.022 340.463,204.805 340.597 C 204.580 340.736,204.510 340.579,204.643 340.233 C 204.895 339.575,205.622 339.558,206.094 340.200 M258.731 344.572 C 259.280 345.131,259.292 345.230,258.800 345.127 C 258.470 345.057,258.233 345.188,258.272 345.417 C 258.312 345.646,257.970 345.862,257.513 345.897 C 257.055 345.931,256.483 346.159,256.240 346.403 C 255.918 346.728,256.015 346.777,256.600 346.586 C 257.228 346.381,257.274 346.414,256.813 346.739 C 256.401 347.031,256.052 347.013,255.637 346.677 C 255.191 346.317,255.116 346.316,255.330 346.672 C 255.486 346.932,255.426 347.261,255.197 347.402 C 254.968 347.544,254.806 347.511,254.837 347.330 C 254.998 346.405,254.714 345.999,253.900 345.988 C 253.096 345.977,253.075 345.932,253.700 345.568 C 254.644 345.018,254.587 344.184,253.600 344.110 C 253.160 344.077,252.800 344.219,252.800 344.425 C 252.800 344.631,253.010 344.800,253.267 344.800 C 253.523 344.800,253.618 344.916,253.476 345.057 C 253.114 345.420,251.961 344.387,252.234 343.945 C 252.633 343.299,257.988 343.815,258.731 344.572 M303.587 349.355 C 303.594 349.110,304.050 348.959,304.600 349.020 C 305.637 349.134,305.977 348.619,305.100 348.265 C 304.760 348.128,304.793 348.053,305.204 348.032 C 305.536 348.014,306.044 348.379,306.333 348.842 C 306.622 349.305,306.666 349.564,306.430 349.418 C 306.193 349.272,306.000 349.324,306.000 349.534 C 306.000 349.984,307.142 350.483,307.569 350.219 C 307.733 350.118,307.867 350.289,307.867 350.600 C 307.867 350.911,307.709 351.067,307.516 350.948 C 307.323 350.829,306.910 350.943,306.598 351.201 C 306.138 351.583,305.932 351.429,305.503 350.377 C 305.003 349.150,304.939 349.118,304.284 349.773 C 303.904 350.153,303.712 350.658,303.858 350.894 C 304.017 351.151,303.935 351.207,303.655 351.034 C 303.398 350.875,303.276 350.601,303.384 350.426 C 303.492 350.250,303.225 349.785,302.791 349.391 C 302.356 348.998,302.000 348.504,302.000 348.294 C 302.000 348.083,302.354 348.336,302.787 348.856 C 303.219 349.375,303.579 349.600,303.587 349.355 " stroke="none" fill="#8c0c4c" fill-rule="evenodd"></path></g></svg>